<svg width="64" height="64" viewBox="0 0 64 64" fill="none" xmlns="http://www.w3.org/2000/svg">
<path d="M43.2468 34.5361C43.6711 34.1825 43.7284 33.552 43.3748 33.1277C43.0213 32.7034 42.3907 32.6461 41.9664 32.9996L43.2468 34.5361ZM31.9999 42.6068L31.3597 43.375C31.7306 43.684 32.2693 43.684 32.6401 43.375L31.9999 42.6068ZM22.0334 32.9996C21.6092 32.6461 20.9786 32.7034 20.625 33.1277C20.2715 33.5519 20.3288 34.1825 20.7531 34.5361L22.0334 32.9996ZM32.9999 21.3934C32.9999 20.8411 32.5522 20.3934 31.9999 20.3934C31.4476 20.3934 30.9999 20.8411 30.9999 21.3934L32.9999 21.3934ZM41.9664 32.9996L31.3597 41.8385L32.6401 43.375L43.2468 34.5361L41.9664 32.9996ZM32.6401 41.8385L22.0334 32.9996L20.7531 34.5361L31.3597 43.375L32.6401 41.8385ZM32.9999 42.6068L32.9999 21.3934L30.9999 21.3934L30.9999 42.6068L32.9999 42.6068ZM48.2635 48.2635C39.2814 57.2455 24.7186 57.2455 15.7365 48.2635L14.3223 49.6777C24.0854 59.4408 39.9146 59.4408 49.6777 49.6777L48.2635 48.2635ZM15.7365 48.2635C6.75449 39.2814 6.75449 24.7186 15.7365 15.7365L14.3223 14.3223C4.55922 24.0854 4.55922 39.9146 14.3223 49.6777L15.7365 48.2635ZM15.7365 15.7365C24.7186 6.75449 39.2814 6.75449 48.2635 15.7365L49.6777 14.3223C39.9146 4.55922 24.0854 4.55922 14.3223 14.3223L15.7365 15.7365ZM48.2635 15.7365C57.2455 24.7186 57.2455 39.2814 48.2635 48.2635L49.6777 49.6777C59.4408 39.9146 59.4408 24.0854 49.6777 14.3223L48.2635 15.7365Z" fill="white"/>
</svg>
