<svg width="25" height="24" viewBox="0 0 25 24" fill="none" xmlns="http://www.w3.org/2000/svg">
<path d="M17.5926 11.6427C18.0169 11.2891 18.0742 10.6585 17.7206 10.2343C17.367 9.80998 16.7365 9.75265 16.3122 10.1062L17.5926 11.6427ZM12.9749 14.189L12.3347 14.9572C12.7056 15.2663 13.2442 15.2663 13.6151 14.9572L12.9749 14.189ZM9.63757 10.1062C9.21329 9.75265 8.58273 9.80998 8.22916 10.2343C7.8756 10.6585 7.93292 11.2891 8.3572 11.6427L9.63757 10.1062ZM16.3122 10.1062L12.3347 13.4208L13.6151 14.9572L17.5926 11.6427L16.3122 10.1062ZM13.6151 13.4208L9.63757 10.1062L8.3572 11.6427L12.3347 14.9572L13.6151 13.4208ZM20.7754 12C20.7754 16.4183 17.1937 20 12.7754 20V22C18.2982 22 22.7754 17.5228 22.7754 12H20.7754ZM12.7754 20C8.35711 20 4.77539 16.4183 4.77539 12H2.77539C2.77539 17.5228 7.25254 22 12.7754 22V20ZM4.77539 12C4.77539 7.58172 8.35711 4 12.7754 4V2C7.25254 2 2.77539 6.47715 2.77539 12H4.77539ZM12.7754 4C17.1937 4 20.7754 7.58172 20.7754 12H22.7754C22.7754 6.47715 18.2982 2 12.7754 2V4Z" fill="white"/>
</svg>
