<svg width="48" height="48" viewBox="0 0 48 48" fill="none" xmlns="http://www.w3.org/2000/svg">
<path d="M22.7993 6.49737C23.4624 5.83421 24.5376 5.83421 25.2007 6.49737L30.0445 11.3412C30.7077 12.0043 30.7077 13.0795 30.0445 13.7426L25.2007 18.5864C24.5376 19.2496 23.4624 19.2496 22.7993 18.5864L17.9555 13.7426C17.2923 13.0795 17.2923 12.0043 17.9555 11.3412L22.7993 6.49737Z" stroke="white" stroke-width="2"/>
<path d="M34.2574 17.9555C34.9205 17.2923 35.9957 17.2923 36.6588 17.9555L41.5026 22.7993C42.1658 23.4624 42.1658 24.5376 41.5026 25.2007L36.6588 30.0445C35.9957 30.7077 34.9205 30.7077 34.2574 30.0445L29.4136 25.2007C28.7504 24.5376 28.7504 23.4624 29.4136 22.7993L34.2574 17.9555Z" stroke="white" stroke-width="2"/>
<path d="M11.3412 17.9555C12.0043 17.2923 13.0795 17.2923 13.7426 17.9555L18.5864 22.7993C19.2496 23.4624 19.2496 24.5376 18.5864 25.2007L13.7426 30.0445C13.0795 30.7077 12.0043 30.7077 11.3412 30.0445L6.49737 25.2007C5.83421 24.5376 5.83421 23.4624 6.49737 22.7993L11.3412 17.9555Z" stroke="white" stroke-width="2"/>
<path d="M22.7993 29.4136C23.4624 28.7504 24.5376 28.7504 25.2007 29.4136L30.0445 34.2574C30.7077 34.9205 30.7077 35.9957 30.0445 36.6588L25.2007 41.5026C24.5376 42.1658 23.4624 42.1658 22.7993 41.5026L17.9555 36.6588C17.2923 35.9957 17.2923 34.9205 17.9555 34.2574L22.7993 29.4136Z" stroke="white" stroke-width="2"/>
</svg>
