<svg width="48" height="48" viewBox="0 0 48 48" fill="none" xmlns="http://www.w3.org/2000/svg">
<path d="M22.1968 7.60738H10.8238C7.05512 7.60738 4 10.6624 4 14.431V37.1764C4 40.945 7.05512 44 10.8238 44H33.5698C37.3384 44 40.3936 40.945 40.3936 37.1764L40.3936 25.8037M15.373 32.6272L23.6487 30.9597C24.088 30.8712 24.4914 30.6549 24.8082 30.3379L43.3342 11.8023C44.2225 10.9136 44.2218 9.47313 43.3329 8.58519L39.4084 4.66528C38.5198 3.77771 37.08 3.77832 36.1921 4.66663L17.6642 23.2041C17.348 23.5205 17.1321 23.923 17.0435 24.3614L15.373 32.6272Z" stroke="white" stroke-width="2" stroke-linecap="round" stroke-linejoin="round"/>
</svg>
