<svg width="24" height="24" viewBox="0 0 24 24" fill="none" xmlns="http://www.w3.org/2000/svg">
<path d="M7.27128 20.9998H17.2287C17.7928 20.9998 18.25 20.5392 18.25 19.9712V17.2235C18.25 17.0039 18.1802 16.7901 18.0509 16.6133L15.1058 12.5878C14.8481 12.2357 14.8398 11.7579 15.0851 11.3969L17.8163 7.37666C17.9325 7.20558 17.9947 7.00313 17.9947 6.79584V4.02833C17.9947 3.46026 17.5374 2.99976 16.9734 2.99976H7.27128C6.70724 2.99976 6.25 3.46026 6.25 4.02833V6.77602C6.25 6.99559 6.31977 7.2094 6.44909 7.38617L9.37807 11.3896C9.64353 11.7524 9.64353 12.2471 9.37807 12.6099L6.44909 16.6133C6.31977 16.7901 6.25 17.0039 6.25 17.2235V19.9712C6.25 20.5392 6.70724 20.9998 7.27128 20.9998Z" stroke="white" stroke-width="2" stroke-linecap="round" stroke-linejoin="round"/>
</svg>
