<svg width="92" height="80" viewBox="0 0 92 80" fill="none" xmlns="http://www.w3.org/2000/svg">
<line x1="12.2972" y1="35.3284" x2="79.5362" y2="35.3284" stroke="white" stroke-width="4"/>
<line x1="0.811462" y1="46.0962" x2="91.261" y2="46.0962" stroke="white" stroke-width="4"/>
<mask id="path-3-inside-1_14_80" fill="white">
<path fill-rule="evenodd" clip-rule="evenodd" d="M67.0724 36.8498L45.7971 0L24.5219 36.8498H67.0724ZM73.5655 48.0962H18.0288L9.87053e-05 79.3228H91.5942L73.5655 48.0962Z"/>
</mask>
<path fill-rule="evenodd" clip-rule="evenodd" d="M67.0724 36.8498L45.7971 0L24.5219 36.8498H67.0724ZM73.5655 48.0962H18.0288L9.87053e-05 79.3228H91.5942L73.5655 48.0962Z" fill="white"/>
<path d="M45.7971 0L46.6632 -0.5L45.7971 -2L44.9311 -0.5L45.7971 0ZM67.0724 36.8498V37.8498H68.8044L67.9384 36.3498L67.0724 36.8498ZM24.5219 36.8498L23.6559 36.3498L22.7899 37.8498H24.5219V36.8498ZM73.5655 48.0962L74.4315 47.5962L74.1428 47.0962H73.5655V48.0962ZM18.0288 48.0962V47.0962H17.4515L17.1628 47.5962L18.0288 48.0962ZM9.87053e-05 79.3228L-0.865927 78.8228L-1.73195 80.3228H9.87053e-05V79.3228ZM91.5942 79.3228V80.3228H93.3262L92.4602 78.8228L91.5942 79.3228ZM44.9311 0.5L66.2064 37.3498L67.9384 36.3498L46.6632 -0.5L44.9311 0.5ZM25.3879 37.3498L46.6632 0.5L44.9311 -0.5L23.6559 36.3498L25.3879 37.3498ZM24.5219 37.8498H67.0724V35.8498H24.5219V37.8498ZM73.5655 47.0962H18.0288V49.0962H73.5655V47.0962ZM0.866124 79.8228L18.8948 48.5962L17.1628 47.5962L-0.865927 78.8228L0.866124 79.8228ZM91.5942 78.3228H9.87053e-05V80.3228H91.5942V78.3228ZM72.6995 48.5962L90.7282 79.8228L92.4602 78.8228L74.4315 47.5962L72.6995 48.5962Z" fill="white" mask="url(#path-3-inside-1_14_80)"/>
</svg>
